:FULLY-SPECIFIED
:DEGREES
180
root -0.567874014377594 -0.567874014377594 -0.567874014377594 -0.5678755879732001 -0.5678755879732001 -0.5678755879732001
lhipjoint -9.671654586443837e-08 -1.5341245206083327e-07 1.0672170578144923e-06
lfemur -10.757834810715224 -8.346340901593841 -14.385727354407932
ltibia 20.294566694068273 -9.341784757099908e-07 4.192256047868374e-07
lfoot -20.283571797051845 3.614504473314909e-07 17.716296640888107
ltoes -58.425431330099904 5.119677804101939e-07 1.2974051483311106e-06
rhipjoint 1.1005675908711953e-07 6.870210827458292e-07 -1.494104084495789e-06
rfemur -0.8472433984356799 5.797808211399439 14.087686927332546
rtibia -0.47864605001700644 -3.390729551480244e-08 -2.5658612441736645e-06
rfoot -17.45932614129201 4.748304026164282e-07 -15.480382989665657
rtoes 1.4076609000829021 1.8069383540770502e-06 1.3992359243455925e-07
lowerback 11.589613540292083 1.6528921187647456 -0.6839207154151283
upperback 1.220267509849315 1.8852963489070111 1.2045861425669062
thorax -6.886781983041361 1.0808907763677404 1.5148677627388338
lowerneck -11.457395592112624 -2.029057957114028 -1.9248847656666397
upperneck 23.5797988923852 -3.0151462414105206 2.3060364286666197
head 9.370881229926802 -1.331763944747426 0.7745436119620046
lclavicle -1.4085775951116125e-07 5.4855408257763046e-08 -1.0938974842598547e-06
lhumerus -30.548584553488556 1.1102660326057903 73.63109898870577
lradius 50.13592101749515 2.851861402907355e-07 2.252374782771641e-06
lwrist -8.89868616331838e-07 -44.0443894854626 2.1456970958669832e-07
lhand -4.562975323145072 2.6246558075710764e-07 -26.656099019086014
lfingers 7.125022823272814 9.845282338726802e-08 3.18924141240953e-07
lthumb 21.213298854421275 -1.2803152392500461e-07 2.20318914769186
rclavicle 1.398304276268298e-07 4.3880174074018323e-07 -1.3740421654916584e-06
rhumerus -33.447818856145965 5.807187768677159 -60.32380044763491
rradius 63.635984572416696 -2.6836382526946313e-06 -1.030985725905057e-05
rwrist 2.5238212830605786e-07 29.895031072566713 5.641803258387229e-07
rhand -6.972260092956778 2.0321462048512455e-07 -36.68780446630613
rfingers 7.125022396385991 5.1024341088409163e-08 -3.1892353057445414e-07
rthumb 18.897492480477187 1.5447771905696147e-06 -65.78980959509936
181
root -0.567874014377594 -0.567874014377594 -0.567874014377594 -0.5678755879732001 -0.5678755879732001 -0.5678755879732001
lhipjoint -9.671654586443837e-08 -1.5341245206083327e-07 1.0672170578144923e-06
lfemur -13.359752686349267 -8.14908333081658 -14.093221941881197
ltibia 22.64889362738394 -7.48147679724565e-07 -3.8167724843935174e-07
lfoot -20.810358674525542 6.083874914673206e-07 17.268973891765633
ltoes -58.31171551060836 -3.472674125626593e-07 1.7709495381898544e-06
rhipjoint 1.1005675908711953e-07 6.870210827458292e-07 -1.494104084495789e-06
rfemur -5.236200175763372 4.813999289295027 14.238687895729543
rtibia 5.814321474378414 1.7846596117553336e-07 -7.905334816314945e-07
rfoot -19.086398437446814 4.685027272443127e-07 -13.169005993398322
rtoes 1.1174872501057862 7.866828476897403e-08 1.4285535140661996e-07
lowerback 10.832597207596537 1.9567535745602729 -1.2735981604973035
upperback 1.4954695986091744 2.0632769914123803 0.8861354027042316
thorax -6.2120284487094475 1.177989065773759 1.448629228498285
lowerneck -11.457395592112624 -2.029057957114028 -1.9248847656666397
upperneck 23.5797988923852 -3.0151462414105206 2.3060364286666197
head 9.370881229926802 -1.331763944747426 0.7745436119620046
lclavicle -1.4085775951116125e-07 5.4855408257763046e-08 -1.0938974842598547e-06
lhumerus -30.484367114912096 -7.043872918857069 81.2268704024069
lradius 55.57393321955171 -2.745532152129161e-07 3.846616366858376e-06
lwrist -7.615157291618184e-07 -40.32106212359189 1.8362007548128243e-07
lhand -4.562975323145072 2.6246558075710764e-07 -26.656099019086014
lfingers 7.125022823272814 9.845282338726802e-08 3.18924141240953e-07
lthumb 21.213298854421275 -1.2803152392500461e-07 2.20318914769186
rclavicle 1.398304276268298e-07 4.3880174074018323e-07 -1.3740421654916584e-06
rhumerus -34.70153081415307 14.330687982528676 -72.12014503108306
rradius 71.13971918705192 -3.2406971893793705e-07 -1.0522406654859165e-05
rwrist 2.510636230017478e-07 29.778934932149422 5.612331984264413e-07
rhand -6.972260092956778 2.0321462048512455e-07 -36.68780446630613
rfingers 7.125022396385991 5.1024341088409163e-08 -3.1892353057445414e-07
rthumb 18.897492480477187 1.5447771905696147e-06 -65.78980959509936
182
root -0.567874014377594 -0.567874014377594 -0.567874014377594 -0.5678755879732001 -0.5678755879732001 -0.5678755879732001
lhipjoint -9.671654586443837e-08 -1.5341245206083327e-07 1.0672170578144923e-06
lfemur -18.033463305186817 -6.6601306931709505 -14.04162242402269
ltibia 26.696870125789115 -2.001114830490516e-06 -1.5010592705843384e-06
lfoot -21.158384133494373 1.0906613589269967e-06 15.549586466336226
ltoes -58.35617321191597 9.853716660853295e-07 2.1495059754868793e-06
rhipjoint 1.1005675908711953e-07 6.870210827458292e-07 -1.494104084495789e-06
rfemur -11.989617592618357 3.4639302241285552 14.196561850249843
rtibia 14.805148780770905 5.224207115374799e-07 -1.524261035319053e-06
rfoot -21.437487861095896 2.6395009066024014e-06 -10.393995756270522
rtoes -0.7220055300620021 -9.059356590273438e-07 -6.383480112334575e-08
lowerback 12.155207845082499 2.141373801269129 -1.562884206047435
upperback 1.5788118870267873 2.238594500471679 0.58919943856198
thorax -6.627877686136504 1.2381903531182514 1.1919092047456568
lowerneck -11.457395592112624 -2.029057957114028 -1.9248847656666397
upperneck 23.5797988923852 -3.0151462414105206 2.3060364286666197
head 9.370881229926802 -1.331763944747426 0.7745436119620046
lclavicle -1.4085775951116125e-07 5.4855408257763046e-08 -1.0938974842598547e-06
lhumerus -25.068725489934618 -14.746327191638754 84.68651831136928
lradius 61.16728099880729 1.191122511762328e-06 5.571360027968926e-06
lwrist -6.465796938600844e-07 -36.422386730254026 1.5590684659753658e-07
lhand -4.562975323145072 2.6246558075710764e-07 -26.656099019086014
lfingers 7.125022823272814 9.845282338726802e-08 3.18924141240953e-07
lthumb 21.213298854421275 -1.2803152392500461e-07 2.20318914769186
rclavicle 1.398304276268298e-07 4.3880174074018323e-07 -1.3740421654916584e-06
rhumerus -31.767380584458554 21.00021232024251 -81.77904338547825
rradius 79.20218376636169 -1.7125287026897333e-06 -1.2046778424370008e-05
rwrist 2.8818659924391583e-07 32.89775981662274 6.442190607310646e-07
rhand -6.972260092956778 2.0321462048512455e-07 -36.68780446630613
rfingers 7.125022396385991 5.1024341088409163e-08 -3.1892353057445414e-07
rthumb 18.897492480477187 1.5447771905696147e-06 -65.78980959509936
183
root -0.567874014377594 -0.567874014377594 -0.567874014377594 -0.5678755879732001 -0.5678755879732001 -0.5678755879732001
lhipjoint -9.671654586443837e-08 -1.5341245206083327e-07 1.0672170578144923e-06
lfemur -23.9413822768565 -3.9480533921688243 -14.218662634856711
ltibia 31.745530809303684 -1.3182323363850818e-06 -3.6598159275289106e-07
lfoot -21.036750417207493 -1.5122007790779426e-06 12.636887299503785
ltoes -58.34480777713707 8.120895001518326e-08 1.533766059373513e-06
rhipjoint 1.1005675908711953e-07 6.870210827458292e-07 -1.494104084495789e-06
rfemur -20.067970045711224 1.964962181282159 13.994769033863694
rtibia 25.277618287962994 1.6458802556729777e-06 -2.0721015540927878e-06
rfoot -24.017322027596 3.2735707919004785e-06 -7.580161016353076
rtoes -3.807940172195652 -1.137258571454308e-06 -2.898086821314622e-07
lowerback 15.338250168132276 2.0720604012416053 -1.3551642795655956
upperback 1.6802129821665024 2.273428465238744 0.3828185760030069
thorax -7.867952744578856 1.1983019416436713 0.7766200961913943
lowerneck -11.457395592112624 -2.029057957114028 -1.9248847656666397
upperneck 23.5797988923852 -3.0151462414105206 2.3060364286666197
head 9.370881229926802 -1.331763944747426 0.7745436119620046
lclavicle -1.4085775951116125e-07 5.4855408257763046e-08 -1.0938974842598547e-06
lhumerus -13.287129846225461 -19.680863951858875 83.24065605653679
lradius 64.7013301583986 -1.6603492859187665e-07 4.132004027093728e-06
lwrist -5.582053103696881e-07 -32.98619710599606 1.3459705389841866e-07
lhand -4.562975323145072 2.6246558075710764e-07 -26.656099019086014
lfingers 7.125022823272814 9.845282338726802e-08 3.18924141240953e-07
lthumb 21.213298854421275 -1.2803152392500461e-07 2.20318914769186
rclavicle 1.398304276268298e-07 4.3880174074018323e-07 -1.3740421654916584e-06
rhumerus -22.617387672289965 24.27541438576327 -85.85889296164528
rradius 84.34022772044963 -6.402404667133658e-07 -1.5334759113643638e-05
rwrist 3.724281190923435e-07 38.93446200509302 8.325332405334068e-07
rhand -6.972260092956778 2.0321462048512455e-07 -36.68780446630613
rfingers 7.125022396385991 5.1024341088409163e-08 -3.1892353057445414e-07
rthumb 18.897492480477187 1.5447771905696147e-06 -65.78980959509936
